<svg id="visual" viewBox="0 0 900 600" width="900" height="600" xmlns="http://www.w3.org/2000/svg" xmlns:xlink="http://www.w3.org/1999/xlink" version="1.1"><rect x="0" y="0" width="900" height="600" fill="#fffafc"></rect><path d="M0 585L30 575.5C60 566 120 547 180 548C240 549 300 570 360 568.8C420 567.7 480 544.3 540 528.3C600 512.3 660 503.7 720 511.2C780 518.7 840 542.3 870 554.2L900 566L900 601L870 601C840 601 780 601 720 601C660 601 600 601 540 601C480 601 420 601 360 601C300 601 240 601 180 601C120 601 60 601 30 601L0 601Z" fill="#ff8fba" stroke-linecap="round" stroke-linejoin="miter"></path></svg>