<svg id="visual" viewBox="0 0 900 600" width="900" height="600" xmlns="http://www.w3.org/2000/svg" xmlns:xlink="http://www.w3.org/1999/xlink" version="1.1"><path d="M0 493L30 506.3C60 519.7 120 546.3 180 557C240 567.7 300 562.3 360 552.3C420 542.3 480 527.7 540 526C600 524.3 660 535.7 720 535.3C780 535 840 523 870 517L900 511L900 601L870 601C840 601 780 601 720 601C660 601 600 601 540 601C480 601 420 601 360 601C300 601 240 601 180 601C120 601 60 601 30 601L0 601Z" fill="#fffafc" stroke-linecap="round" stroke-linejoin="miter"></path></svg>